<svg width="161" height="61" viewBox="0 0 161 61" fill="none" xmlns="http://www.w3.org/2000/svg">
<path d="M148.37 60.1231C147.794 60.1328 147.252 60.0938 146.744 60.0059C146.246 59.918 145.836 59.8057 145.514 59.669L146.539 56.2852L146.686 56.3145C147.447 56.5391 148.097 56.5879 148.634 56.4609C149.181 56.3438 149.596 55.9141 149.879 55.1719L150.143 54.4688L144.283 37.6231H149.044L152.428 49.6494H152.604L156.031 37.6231H160.821L154.464 55.7725C154.161 56.6514 153.746 57.418 153.219 58.0723C152.701 58.7266 152.047 59.2295 151.256 59.5811C150.465 59.9424 149.503 60.1231 148.37 60.1231Z" fill="white"/>
<path d="M143.609 37.6231V41.0508H133.751V37.6231H143.609ZM135.992 33.7266H140.519V48.9609C140.519 49.5078 140.641 49.9131 140.885 50.1768C141.129 50.4307 141.52 50.5576 142.057 50.5576C142.232 50.5576 142.428 50.543 142.643 50.5137C142.857 50.4844 143.043 50.4502 143.199 50.4111L143.917 53.8096C143.419 53.9561 142.936 54.0635 142.467 54.1318C142.008 54.2002 141.554 54.2344 141.104 54.2344C139.474 54.2344 138.214 53.8291 137.325 53.0186C136.437 52.1982 135.992 51.0459 135.992 49.5615V33.7266Z" fill="white"/>
<path d="M127.716 54V37.6231H132.242V54H127.716ZM129.972 35.5283C129.298 35.5283 128.722 35.3037 128.243 34.8545C127.765 34.4053 127.525 33.8633 127.525 33.2285C127.525 32.5938 127.765 32.0566 128.243 31.6172C128.722 31.168 129.298 30.9434 129.972 30.9434C130.655 30.9434 131.236 31.168 131.715 31.6172C132.193 32.0566 132.433 32.5938 132.433 33.2285C132.433 33.8633 132.193 34.4053 131.715 34.8545C131.236 35.3037 130.655 35.5283 129.972 35.5283Z" fill="white"/>
<path d="M114.488 44.5371V54H109.962V37.6231H114.415V40.5381H114.576C114.947 39.5713 115.538 38.8096 116.349 38.2529C117.159 37.6963 118.175 37.418 119.396 37.418C120.528 37.418 121.515 37.667 122.354 38.165C123.204 38.6631 123.863 39.3711 124.332 40.2891C124.801 41.207 125.035 42.3057 125.035 43.585V54H120.509V44.3906C120.509 43.3945 120.25 42.6133 119.732 42.0469C119.215 41.4707 118.502 41.1826 117.594 41.1826C116.988 41.1826 116.451 41.3193 115.982 41.5928C115.514 41.8565 115.147 42.2373 114.884 42.7354C114.62 43.2334 114.488 43.834 114.488 44.5371Z" fill="white"/>
<path d="M102.755 47.042V37.6231H107.281V54H102.931V51.0264H102.755C102.384 51.9736 101.773 52.7451 100.924 53.3408C100.074 53.9268 99.0342 54.2148 97.8037 54.2051C96.71 54.2051 95.7432 53.9609 94.9033 53.4727C94.0732 52.9746 93.4238 52.2666 92.9551 51.3486C92.4961 50.4307 92.2666 49.332 92.2666 48.0527V37.6231H96.793V47.2617C96.793 48.2188 97.0518 48.9805 97.5693 49.5469C98.0869 50.1035 98.7754 50.377 99.6348 50.3672C100.182 50.3672 100.689 50.2451 101.158 50.001C101.627 49.7471 102.008 49.3711 102.301 48.8731C102.604 48.375 102.755 47.7647 102.755 47.042Z" fill="white"/>
<path d="M65.8115 54V37.6231H70.1035V40.5381H70.3086C70.6504 39.5713 71.2217 38.8096 72.0225 38.2529C72.8232 37.6963 73.7754 37.418 74.8789 37.418C76.002 37.418 76.9541 37.7012 77.7354 38.2676C78.5264 38.8242 79.0537 39.5811 79.3174 40.5381H79.4932C79.8252 39.5908 80.4307 38.834 81.3096 38.2676C82.1885 37.7012 83.2236 37.418 84.415 37.418C85.9385 37.418 87.1787 37.9014 88.1357 38.8682C89.1025 39.835 89.5859 41.207 89.5859 42.9844V54H85.0449V43.8926C85.0449 42.9746 84.8008 42.291 84.3125 41.8418C83.834 41.3926 83.2334 41.168 82.5107 41.168C81.6904 41.168 81.0459 41.4316 80.5771 41.959C80.1182 42.4766 79.8887 43.1602 79.8887 44.0098V54H75.4941V43.7754C75.4941 42.9844 75.2646 42.3545 74.8057 41.8857C74.3467 41.4072 73.7461 41.168 73.0039 41.168C72.4961 41.168 72.042 41.2949 71.6416 41.5488C71.2412 41.8027 70.9238 42.1543 70.6895 42.6035C70.4551 43.043 70.3379 43.5703 70.3379 44.1856V54H65.8115Z" fill="white"/>
<path d="M39.3564 54V37.6231H43.6484V40.5381H43.8535C44.1953 39.5713 44.7666 38.8096 45.5674 38.2529C46.3682 37.6963 47.3203 37.418 48.4238 37.418C49.5469 37.418 50.499 37.7012 51.2803 38.2676C52.0713 38.8242 52.5986 39.5811 52.8623 40.5381H53.0381C53.3701 39.5908 53.9756 38.834 54.8545 38.2676C55.7334 37.7012 56.7686 37.418 57.96 37.418C59.4834 37.418 60.7236 37.9014 61.6807 38.8682C62.6475 39.835 63.1309 41.207 63.1309 42.9844V54H58.5898V43.8926C58.5898 42.9746 58.3457 42.291 57.8574 41.8418C57.3789 41.3926 56.7783 41.168 56.0557 41.168C55.2354 41.168 54.5908 41.4316 54.1221 41.959C53.6631 42.4766 53.4336 43.1602 53.4336 44.0098V54H49.0391V43.7754C49.0391 42.9844 48.8096 42.3545 48.3506 41.8857C47.8916 41.4072 47.291 41.168 46.5488 41.168C46.041 41.168 45.5869 41.2949 45.1865 41.5488C44.7861 41.8027 44.4688 42.1543 44.2344 42.6035C44 43.043 43.8828 43.5703 43.8828 44.1856V54H39.3564Z" fill="white"/>
<path d="M29.293 54.3223C27.6426 54.3223 26.2119 53.9707 25.001 53.2676C23.7998 52.5547 22.8721 51.5684 22.2178 50.3086C21.5732 49.0391 21.251 47.5645 21.251 45.8848C21.251 44.1856 21.5732 42.7061 22.2178 41.4463C22.8721 40.1768 23.7998 39.1904 25.001 38.4873C26.2119 37.7744 27.6426 37.418 29.293 37.418C30.9531 37.418 32.3838 37.7744 33.585 38.4873C34.7959 39.1904 35.7236 40.1768 36.3682 41.4463C37.0225 42.7061 37.3496 44.1856 37.3496 45.8848C37.3496 47.5645 37.0225 49.0391 36.3682 50.3086C35.7236 51.5684 34.7959 52.5547 33.585 53.2676C32.3838 53.9707 30.9531 54.3223 29.293 54.3223ZM29.3223 50.7773C30.0742 50.7773 30.7041 50.5674 31.2119 50.1475C31.7197 49.7178 32.1006 49.1318 32.3545 48.3897C32.6182 47.6475 32.75 46.8027 32.75 45.8555C32.75 44.8984 32.6182 44.0537 32.3545 43.3213C32.1006 42.5889 31.7197 42.0127 31.2119 41.5928C30.7041 41.1729 30.0742 40.9629 29.3223 40.9629C28.5605 40.9629 27.9209 41.1729 27.4033 41.5928C26.8955 42.0127 26.5098 42.5889 26.2461 43.3213C25.9922 44.0537 25.8652 44.8984 25.8652 45.8555C25.8652 46.8027 25.9922 47.6475 26.2461 48.3897C26.5098 49.1318 26.8955 49.7178 27.4033 50.1475C27.9209 50.5674 28.5605 50.7773 29.3223 50.7773Z" fill="white"/>
<path d="M10.1768 54.293C8.24316 54.293 6.50977 53.8535 4.97656 52.9746C3.44336 52.0957 2.23242 50.8213 1.34375 49.1514C0.455078 47.4815 0.0107422 45.4648 0.0107422 43.1016C0.0107422 40.7188 0.455078 38.6924 1.34375 37.0225C2.24219 35.3428 3.45801 34.0684 4.99121 33.1992C6.53418 32.3203 8.2627 31.8809 10.1768 31.8809C11.4463 31.8809 12.623 32.0615 13.707 32.4229C14.791 32.7744 15.748 33.292 16.5781 33.9756C17.418 34.6494 18.1016 35.4795 18.6289 36.4658C19.1562 37.4424 19.4932 38.5606 19.6396 39.8203H14.9814C14.8936 39.2246 14.7178 38.6875 14.4541 38.209C14.2002 37.7305 13.8633 37.3252 13.4434 36.9932C13.0332 36.6611 12.5596 36.4072 12.0225 36.2315C11.4951 36.0459 10.9141 35.9531 10.2793 35.9531C9.16602 35.9531 8.18457 36.2363 7.33496 36.8027C6.49512 37.3594 5.84082 38.1699 5.37207 39.2344C4.91309 40.2891 4.68359 41.5781 4.68359 43.1016C4.68359 44.6543 4.91797 45.9629 5.38672 47.0273C5.85547 48.082 6.50977 48.8779 7.34961 49.415C8.18945 49.9522 9.16113 50.2207 10.2646 50.2207C10.8799 50.2207 11.4512 50.1377 11.9785 49.9717C12.5059 49.8057 12.9746 49.5664 13.3848 49.2539C13.7949 48.9414 14.1367 48.5606 14.4102 48.1113C14.6934 47.6523 14.8838 47.1299 14.9814 46.544H19.6396C19.5225 47.5498 19.2246 48.5166 18.7461 49.4443C18.2773 50.3721 17.6377 51.2022 16.8271 51.9346C16.0166 52.6572 15.0547 53.2334 13.9414 53.6631C12.8281 54.083 11.5732 54.293 10.1768 54.293Z" fill="white"/>
<path d="M90.2158 24V7.62305H94.5078V10.5381H94.7129C95.0547 9.57129 95.626 8.80958 96.4268 8.25294C97.2275 7.69629 98.1797 7.41797 99.2832 7.41797C100.406 7.41797 101.358 7.70118 102.14 8.26758C102.931 8.82422 103.458 9.58106 103.722 10.5381H103.897C104.229 9.59083 104.835 8.83399 105.714 8.26758C106.593 7.70118 107.628 7.41797 108.819 7.41797C110.343 7.41797 111.583 7.90137 112.54 8.86817C113.507 9.83497 113.99 11.207 113.99 12.9844V24H109.449V13.8926C109.449 12.9746 109.205 12.291 108.717 11.8418C108.238 11.3926 107.638 11.168 106.915 11.168C106.095 11.168 105.45 11.4316 104.981 11.959C104.522 12.4766 104.293 13.1602 104.293 14.0098V24H99.8984V13.7754C99.8984 12.9844 99.6689 12.3545 99.21 11.8857C98.751 11.4072 98.1504 11.168 97.4082 11.168C96.9004 11.168 96.4463 11.2949 96.0459 11.5488C95.6455 11.8027 95.3281 12.1543 95.0938 12.6035C94.8594 13.043 94.7422 13.5703 94.7422 14.1856V24H90.2158Z" fill="white"/>
<path d="M78.3506 24.3076C77.3154 24.3076 76.3828 24.127 75.5527 23.7656C74.7324 23.3945 74.0879 22.8477 73.6191 22.125C73.1504 21.4023 72.916 20.5039 72.916 19.4297C72.916 18.5117 73.082 17.75 73.4141 17.1445C73.7461 16.5293 74.2002 16.0313 74.7764 15.6504C75.3525 15.2695 76.0068 14.9815 76.7393 14.7861C77.4717 14.5908 78.248 14.4541 79.0684 14.376C80.0156 14.2881 80.7773 14.2002 81.3535 14.1123C81.9297 14.0244 82.3496 13.8926 82.6133 13.7168C82.8867 13.5313 83.0234 13.2676 83.0234 12.9258V12.8525C83.0234 12.1787 82.8086 11.6563 82.3789 11.2852C81.959 10.9141 81.3633 10.7285 80.5918 10.7285C79.7812 10.7285 79.1318 10.9092 78.6436 11.2705C78.165 11.6221 77.8477 12.0713 77.6914 12.6182L73.4873 12.2813C73.7021 11.2852 74.1221 10.4258 74.7471 9.70313C75.3721 8.97071 76.1777 8.40919 77.1641 8.01856C78.1602 7.61817 79.3125 7.41797 80.6211 7.41797C81.5293 7.41797 82.3984 7.5254 83.2285 7.74024C84.0586 7.95508 84.7959 8.28712 85.4404 8.73633C86.0947 9.17579 86.6123 9.74708 86.9932 10.4502C87.374 11.1533 87.5645 11.9883 87.5645 12.9551V24H83.2432V21.7148H83.126C82.8623 22.2324 82.5107 22.6865 82.0713 23.0772C81.6318 23.458 81.1045 23.7607 80.4893 23.9854C79.874 24.2002 79.1611 24.3076 78.3506 24.3076ZM79.6543 21.1729C80.3184 21.1729 80.9043 21.041 81.4121 20.7773C81.9297 20.5039 82.3301 20.1426 82.6133 19.6934C82.9062 19.2344 83.0527 18.7217 83.0527 18.1553V16.4121C82.916 16.5 82.7207 16.583 82.4668 16.6611C82.2227 16.7393 81.9492 16.8076 81.6465 16.8662C81.3438 16.9248 81.041 16.9785 80.7383 17.0273C80.4355 17.0664 80.1621 17.1055 79.918 17.1445C79.3809 17.2227 78.9121 17.3496 78.5117 17.5254C78.1113 17.6914 77.7988 17.9209 77.5742 18.2139C77.3594 18.4971 77.252 18.8535 77.252 19.2832C77.252 19.8984 77.4766 20.3672 77.9258 20.6895C78.375 21.0117 78.9512 21.1729 79.6543 21.1729Z" fill="white"/>
<path d="M62.8818 24V7.62305H67.2617V10.4941H67.4375C67.7402 9.47852 68.2432 8.71192 68.9463 8.19434C69.6494 7.667 70.4551 7.40333 71.3633 7.40333C71.5977 7.40333 71.8418 7.41797 72.0957 7.44727C72.3594 7.4668 72.5938 7.50587 72.7988 7.56446V11.5781C72.584 11.5098 72.2861 11.4561 71.9053 11.417C71.5342 11.3682 71.1875 11.3438 70.8652 11.3438C70.2109 11.3438 69.6201 11.4902 69.0928 11.7832C68.5654 12.0664 68.1504 12.4668 67.8477 12.9844C67.5547 13.4922 67.4082 14.0781 67.4082 14.7422V24H62.8818Z" fill="white"/>
<path d="M52.2178 30.4746C50.0107 30.4746 48.2822 30.0352 47.0322 29.1563C45.7822 28.2871 45.0205 27.2031 44.7471 25.9043L48.9365 25.3477C49.0635 25.6797 49.2637 25.9873 49.5371 26.2705C49.8105 26.5537 50.1768 26.7783 50.6357 26.9443C51.0947 27.1201 51.6562 27.208 52.3203 27.208C53.3066 27.208 54.1221 26.9688 54.7666 26.4902C55.4111 26.0215 55.7334 25.2256 55.7334 24.1025V21.0996H55.543C55.3477 21.5488 55.0498 21.9785 54.6494 22.3887C54.249 22.7988 53.7363 23.1309 53.1113 23.3848C52.4863 23.6387 51.7393 23.7656 50.8701 23.7656C49.6396 23.7656 48.5215 23.4824 47.5156 22.916C46.5195 22.3398 45.7188 21.4609 45.1133 20.2793C44.5176 19.0977 44.2197 17.6035 44.2197 15.7969C44.2197 13.9316 44.5225 12.3789 45.1279 11.1387C45.7432 9.89844 46.5537 8.97071 47.5596 8.35547C48.5654 7.73047 49.6689 7.41797 50.8701 7.41797C51.7881 7.41797 52.5547 7.57422 53.1699 7.88672C53.7949 8.18946 54.3027 8.57032 54.6934 9.0293C55.084 9.48829 55.377 9.94239 55.5723 10.3916H55.748V7.62305H60.2158V24.1758C60.2158 25.5625 59.874 26.7246 59.1904 27.6621C58.5068 28.5996 57.5645 29.3027 56.3633 29.7715C55.1621 30.2402 53.7803 30.4746 52.2178 30.4746ZM52.3057 20.3525C53.3994 20.3525 54.2441 19.9473 54.8398 19.1367C55.4453 18.3262 55.748 17.2031 55.748 15.7676C55.748 14.8106 55.6113 13.9805 55.3379 13.2773C55.0742 12.5645 54.6885 12.0127 54.1807 11.6221C53.6729 11.2217 53.0479 11.0215 52.3057 11.0215C51.5635 11.0215 50.9336 11.2266 50.416 11.6367C49.9082 12.0371 49.5225 12.5938 49.2588 13.3066C48.9951 14.0195 48.8633 14.8398 48.8633 15.7676C48.8633 16.7051 48.9951 17.5205 49.2588 18.2139C49.5225 18.8975 49.9082 19.4248 50.416 19.7959C50.9336 20.167 51.5635 20.3525 52.3057 20.3525Z" fill="white"/>
<path d="M33.0283 24.3076C31.9932 24.3076 31.0605 24.127 30.2305 23.7656C29.4102 23.3945 28.7656 22.8477 28.2969 22.125C27.8281 21.4023 27.5938 20.5039 27.5938 19.4297C27.5938 18.5117 27.7598 17.75 28.0918 17.1445C28.4238 16.5293 28.8779 16.0313 29.4541 15.6504C30.0303 15.2695 30.6846 14.9815 31.417 14.7861C32.1494 14.5908 32.9258 14.4541 33.7461 14.376C34.6934 14.2881 35.4551 14.2002 36.0312 14.1123C36.6074 14.0244 37.0273 13.8926 37.291 13.7168C37.5645 13.5313 37.7012 13.2676 37.7012 12.9258V12.8525C37.7012 12.1787 37.4863 11.6563 37.0566 11.2852C36.6367 10.9141 36.041 10.7285 35.2695 10.7285C34.459 10.7285 33.8096 10.9092 33.3213 11.2705C32.8428 11.6221 32.5254 12.0713 32.3691 12.6182L28.165 12.2813C28.3799 11.2852 28.7998 10.4258 29.4248 9.70313C30.0498 8.97071 30.8555 8.40919 31.8418 8.01856C32.8379 7.61817 33.9902 7.41797 35.2988 7.41797C36.207 7.41797 37.0762 7.5254 37.9062 7.74024C38.7363 7.95508 39.4736 8.28712 40.1182 8.73633C40.7725 9.17579 41.29 9.74708 41.6709 10.4502C42.0518 11.1533 42.2422 11.9883 42.2422 12.9551V24H37.9209V21.7148H37.8037C37.54 22.2324 37.1885 22.6865 36.749 23.0772C36.3096 23.458 35.7822 23.7607 35.167 23.9854C34.5518 24.2002 33.8389 24.3076 33.0283 24.3076ZM34.332 21.1729C34.9961 21.1729 35.582 21.041 36.0898 20.7773C36.6074 20.5039 37.0078 20.1426 37.291 19.6934C37.584 19.2344 37.7305 18.7217 37.7305 18.1553V16.4121C37.5938 16.5 37.3984 16.583 37.1445 16.6611C36.9004 16.7393 36.627 16.8076 36.3242 16.8662C36.0215 16.9248 35.7188 16.9785 35.416 17.0273C35.1133 17.0664 34.8398 17.1055 34.5957 17.1445C34.0586 17.2227 33.5898 17.3496 33.1895 17.5254C32.7891 17.6914 32.4766 17.9209 32.252 18.2139C32.0371 18.4971 31.9297 18.8535 31.9297 19.2832C31.9297 19.8984 32.1543 20.3672 32.6035 20.6895C33.0527 21.0117 33.6289 21.1729 34.332 21.1729Z" fill="white"/>
<path d="M21.1631 24V7.62305H25.6895V24H21.1631ZM23.4189 5.52833C22.7451 5.52833 22.1689 5.30372 21.6904 4.8545C21.2119 4.40528 20.9727 3.86329 20.9727 3.22852C20.9727 2.59376 21.2119 2.05665 21.6904 1.61719C22.1689 1.16797 22.7451 0.943365 23.4189 0.943365C24.1025 0.943365 24.6836 1.16797 25.1621 1.61719C25.6406 2.05665 25.8799 2.59376 25.8799 3.22852C25.8799 3.86329 25.6406 4.40528 25.1621 4.8545C24.6836 5.30372 24.1025 5.52833 23.4189 5.52833Z" fill="white"/>
<path d="M8.14062 24H2.45703V20.0449H7.93555C9.3125 20.0449 10.4648 19.8057 11.3926 19.3272C12.3301 18.8389 13.0332 18.082 13.502 17.0566C13.9805 16.0215 14.2197 14.6934 14.2197 13.0723C14.2197 11.4609 13.9805 10.1426 13.502 9.11719C13.0332 8.0918 12.3301 7.33985 11.3926 6.86133C10.4648 6.37305 9.31738 6.12891 7.9502 6.12891H2.36914V2.17383H8.21387C10.4111 2.17383 12.3008 2.61329 13.8828 3.49219C15.4648 4.36133 16.6807 5.61133 17.5303 7.24219C18.3799 8.86329 18.8047 10.8066 18.8047 13.0723C18.8047 15.3477 18.375 17.3008 17.5156 18.9316C16.666 20.5625 15.4453 21.8174 13.8535 22.6963C12.2617 23.5654 10.3574 24 8.14062 24ZM5.00586 2.17383V24H0.40625V2.17383H5.00586Z" fill="white"/>
</svg>
